<svg width="105" height="89" viewBox="0 0 105 89" fill="none" xmlns="http://www.w3.org/2000/svg">
<path d="M49.4252 24.3144C50.0645 25.027 50.0645 26.1884 49.4252 26.9006C48.786 27.6127 47.7435 27.6129 47.1044 26.9006C46.2738 25.9751 45.5969 24.8515 45.1287 23.5985H45.1253C44.674 22.395 44.428 21.0733 44.428 19.7062C44.428 18.6969 45.1628 17.8779 46.0687 17.8779C46.9747 17.8779 47.7095 18.6967 47.7095 19.7062C47.7095 20.5975 47.8668 21.4429 48.147 22.1969H48.1436L48.147 22.2045C48.4409 22.9851 48.8784 23.705 49.4252 24.3144Z" fill="black"/>
<path d="M27.0678 88.8338C26.162 88.8338 25.427 88.015 25.427 87.0055C25.427 85.9963 26.1619 85.1775 27.0678 85.1775H69.452C70.3578 85.1775 71.0928 85.9963 71.0928 87.0055C71.0928 88.015 70.3579 88.8338 69.452 88.8338H27.0678Z" fill="black"/>
<path d="M47.1011 12.5112C47.7404 11.7987 48.7829 11.7987 49.422 12.5112C50.0613 13.2234 50.0613 14.385 49.422 15.0972C48.875 15.7067 48.4377 16.4265 48.147 17.2073L48.1436 17.2149H48.147C47.8667 17.9689 47.7095 18.8183 47.7095 19.7058C47.7095 20.7149 46.9747 21.5339 46.0687 21.5339C45.1628 21.5339 44.428 20.7151 44.428 19.7058C44.428 18.3385 44.6776 17.0207 45.1253 15.8133H45.1287C45.5938 14.5603 46.2739 13.4329 47.1011 12.5112Z" fill="black"/>
<path d="M47.1114 3.2864C46.4723 2.57807 46.4688 1.42008 47.1045 0.708115C47.7404 -0.00442065 48.7794 -0.0080533 49.4185 0.700468C50.2594 1.63363 50.9395 2.75721 51.4045 4.00237H51.4079C51.8592 5.20587 52.1052 6.52751 52.1052 7.89484C52.1052 8.90409 51.3703 9.72312 50.4644 9.72312C49.5585 9.72312 48.8237 8.90428 48.8237 7.89484C48.8237 7.00355 48.6663 6.15814 48.3862 5.40011H48.3896L48.3862 5.39246C48.0856 4.60823 47.6481 3.88843 47.1114 3.2864Z" fill="black"/>
<path d="M49.4253 15.0973C48.7861 15.8099 47.7436 15.8099 47.1045 15.0973C46.4652 14.385 46.4652 13.2234 47.1045 12.5114C47.6514 11.9019 48.0922 11.1821 48.3829 10.3973L48.3863 10.3897H48.3829C48.6632 9.63584 48.8204 8.78623 48.8204 7.89876C48.8204 6.8897 49.5552 6.07068 50.4611 6.07068C51.3671 6.07068 52.1019 6.88951 52.1019 7.89876C52.1019 9.2661 51.8524 10.5841 51.4046 11.7912H51.4012C50.9328 13.0442 50.2559 14.1718 49.4253 15.0973Z" fill="black"/>
<path d="M73.6732 60.4286C72.7675 60.4286 72.0325 59.6097 72.0325 58.6005C72.0325 57.591 72.7673 56.7722 73.6732 56.7722H94.8858C96.7966 56.7722 98.502 55.919 99.7257 54.5478C100.963 53.1577 101.722 51.2226 101.722 49.0899C101.722 47.0143 100.953 45.1252 99.719 43.7575C98.4816 42.3901 96.7691 41.5371 94.8858 41.5371H81.3263C80.4205 41.5371 79.6857 40.7183 79.6857 39.709C79.6857 38.6996 80.4204 37.8807 81.3263 37.8807H94.8858C97.6613 37.8807 100.191 39.1452 102.023 41.1714C103.862 43.2013 105 46.0085 105 49.0897C105 52.2129 103.879 55.0615 102.044 57.1182C100.222 59.1635 97.6992 60.4318 94.8828 60.4318H73.6732V60.4286Z" fill="black"/>
<path d="M72.6341 27.4376C71.7284 27.4376 70.9935 26.6188 70.9935 25.6095C70.9935 24.6001 71.7282 23.7812 72.6341 23.7812H94.8857C95.7913 23.7812 96.5263 24.6001 96.5263 25.6095V25.6552C96.5229 28.1153 96.3691 30.5646 96.072 32.983L96.0684 32.9907H96.072C95.7712 35.4435 95.3131 37.8543 94.7218 40.1967C94.4791 41.1679 93.5733 41.7315 92.7052 41.4612C91.8336 41.1907 91.3278 40.1814 91.5704 39.214C92.1174 37.0393 92.5446 34.7883 92.8282 32.4917H92.8318C93.03 30.8464 93.1634 29.1588 93.218 27.4372L72.6341 27.4376ZM89.3485 46.0507C89.7143 45.1326 90.6849 44.7214 91.5088 45.1326C92.3327 45.5402 92.7016 46.622 92.3359 47.5398C91.4506 49.7451 90.4354 51.8703 89.3075 53.9004C88.1693 55.9497 86.9046 57.9113 85.5342 59.7621C84.9596 60.5389 83.9309 60.6497 83.2338 60.0097C82.5367 59.3698 82.4372 58.2233 83.0116 57.4467C84.2831 55.7251 85.4623 53.897 86.5253 51.985C87.5779 50.0841 88.5282 48.0998 89.3485 46.0507ZM76.8794 64.2792C77.5732 63.6393 78.6088 63.7459 79.1865 64.5193C79.7608 65.2961 79.665 66.4464 78.9712 67.0899C76.8212 69.0704 74.5038 70.8533 72.0494 72.4031C69.6295 73.9342 67.0725 75.2444 64.4238 76.2879C63.5693 76.6232 62.6362 76.1242 62.3354 75.176C62.0346 74.2275 62.4821 73.1838 63.3369 72.8487C65.8116 71.8698 68.1905 70.6511 70.4362 69.2346C72.7058 67.7944 74.8661 66.134 76.8794 64.2792ZM55.1506 75.153C56.0424 75.0007 56.8768 75.6786 57.0132 76.6727C57.1499 77.6667 56.5415 78.5964 55.6493 78.7522C54.4018 78.9656 53.1747 79.1254 51.9783 79.2283C50.7272 79.3311 49.4831 79.3883 48.2629 79.3883C34.9359 79.3883 22.8699 73.3668 14.1368 63.6356L14.0411 63.5175C5.36632 53.7938 0 40.3948 0 25.6093C0 24.6001 0.734851 23.781 1.64076 23.781H1.68177H31.3097C32.2154 23.781 32.9504 24.5999 32.9504 25.6093C32.9504 26.6186 32.2156 27.4374 31.3097 27.4374H3.31206C3.73259 40.5089 8.64424 52.3045 16.3726 60.9577L16.4615 61.0457C24.5999 70.1142 35.8454 75.7241 48.2667 75.7241C49.463 75.7241 50.6217 75.6746 51.7361 75.5834C52.922 75.488 54.0671 75.3396 55.1506 75.153Z" fill="black"/>
<path d="M28.5308 87.8208C28.1274 88.7193 27.1465 89.0848 26.3398 88.6358C25.533 88.1867 25.205 87.0933 25.6084 86.1944L27.7276 81.4716C28.131 80.5727 29.1119 80.2071 29.9186 80.6562C30.7254 81.1059 31.0534 82.1987 30.6502 83.0978L28.5308 87.8208Z" fill="black"/>
<path d="M70.9147 86.1905C71.3181 87.0895 70.9898 88.1826 70.1829 88.6321C69.3764 89.0816 68.3953 88.7159 67.9919 87.8167L62.4136 75.3855C62.01 74.4865 62.3384 73.3934 63.1452 72.9439C63.9517 72.4944 64.9328 72.8602 65.3362 73.7591L70.9147 86.1905Z" fill="black"/>
<path d="M32.4682 24.3144C33.1075 25.027 33.1075 26.1884 32.4682 26.9005C31.8291 27.6129 30.7866 27.6129 30.1473 26.9005C29.3202 25.975 28.6399 24.8515 28.1751 23.5985H28.1716C27.7204 22.3913 27.4744 21.0733 27.4744 19.7062C27.4744 18.6969 28.2092 17.8779 29.1151 17.8779C30.021 17.8779 30.7559 18.6967 30.7559 19.7062C30.7559 20.5975 30.9132 21.4429 31.1934 22.1969L31.1968 22.2045C31.4873 22.9851 31.9247 23.7049 32.4682 24.3144Z" fill="black"/>
<path d="M30.1475 12.5112C30.7868 11.7987 31.8293 11.7987 32.4684 12.5112C33.1077 13.2234 33.1077 14.385 32.4684 15.0972C31.925 15.7067 31.4875 16.4228 31.1934 17.2072V17.2113H31.1968C30.9131 17.9691 30.7559 18.8147 30.7559 19.706C30.7559 20.715 30.021 21.5341 29.1151 21.5341C28.2092 21.5341 27.4744 20.7152 27.4744 19.706C27.4744 18.3387 27.724 17.0208 28.1716 15.8135H28.1751C28.64 14.5603 29.3203 13.4329 30.1475 12.5112Z" fill="black"/>
<path d="M30.1509 3.28632C29.5116 2.57416 29.5116 1.41254 30.1509 0.700387C30.79 -0.0121488 31.8324 -0.0121488 32.4717 0.700387C33.3023 1.6259 33.9792 2.74948 34.4474 4.00229C34.8986 5.20578 35.1447 6.52743 35.1447 7.89476C35.1447 8.90401 34.4098 9.72303 33.5039 9.72303C32.598 9.72303 31.8632 8.9042 31.8632 7.89476C31.8632 7.00347 31.7058 6.15806 31.4256 5.40003H31.4291L31.4256 5.39601C31.1352 4.61561 30.6977 3.8958 30.1509 3.28632Z" fill="black"/>
<path d="M32.4718 15.0859C31.8359 15.8019 30.7969 15.8057 30.1578 15.0974C29.5186 14.3889 29.5152 13.2311 30.1509 12.5189C30.6908 11.9134 31.1318 11.1898 31.4259 10.3975L31.4293 10.3899H31.4259C31.7062 9.63606 31.8634 8.79027 31.8634 7.89917C31.8634 6.88992 32.5982 6.07089 33.5041 6.07089C34.41 6.07089 35.1449 6.88973 35.1449 7.89917C35.1449 9.26631 34.8953 10.5843 34.4476 11.7914C33.9825 13.0366 33.3024 14.1604 32.4718 15.0859Z" fill="black"/>
<path d="M66.379 24.3144C67.0184 25.027 67.0184 26.1884 66.379 26.9005C65.7397 27.6129 64.6972 27.6129 64.0583 26.9005C63.2313 25.9789 62.551 24.8553 62.0824 23.5985C61.6312 22.3913 61.3855 21.0733 61.3855 19.7062C61.3855 18.6969 62.1202 17.8779 63.0261 17.8779C63.932 17.8779 64.6668 18.6967 64.6668 19.7062C64.6668 20.5975 64.824 21.4429 65.1044 22.2009H65.1008L65.1044 22.2086C65.3947 22.989 65.832 23.7049 66.379 24.3144Z" fill="black"/>
<path d="M64.0546 12.5112C64.6941 11.7987 65.7364 11.7987 66.3755 12.5112C67.0146 13.2234 67.0146 14.385 66.3755 15.0972C65.8285 15.7067 65.391 16.4228 65.1002 17.2036L65.0968 17.2113H65.1002C64.82 17.9691 64.6627 18.8147 64.6627 19.706C64.6627 20.715 63.9278 21.5341 63.0221 21.5341C62.1162 21.5341 61.3813 20.7152 61.3813 19.706C61.3813 18.3387 61.6308 17.0208 62.0786 15.8135C62.5474 14.5527 63.2275 13.4329 64.0546 12.5112Z" fill="black"/>
<path d="M64.0547 3.28632C63.4154 2.57416 63.4154 1.41254 64.0547 0.700387C64.6941 -0.0121488 65.7364 -0.0121488 66.3755 0.700387C67.2024 1.62208 67.8828 2.74565 68.3512 4.00229H68.3548C68.8061 5.20961 69.0519 6.53144 69.0519 7.89476C69.0519 8.90401 68.3171 9.72303 67.4113 9.72303C66.5054 9.72303 65.7706 8.9042 65.7706 7.89476C65.7706 7.00347 65.6132 6.15806 65.3331 5.40003H65.3365L65.3331 5.39238C65.039 4.6156 64.6015 3.8958 64.0547 3.28632Z" fill="black"/>
<path d="M66.379 15.0973C65.7397 15.8099 64.6973 15.8099 64.0583 15.0973C63.419 14.385 63.419 13.2234 64.0583 12.5114C64.6053 11.9019 65.0426 11.1821 65.3335 10.4013L65.3369 10.3937H65.3335C65.6136 9.63584 65.771 8.79005 65.771 7.89876C65.771 6.8897 66.5058 6.07068 67.4117 6.07068C68.3175 6.07068 69.0523 6.88951 69.0523 7.89876C69.0523 9.2661 68.8028 10.5841 68.3552 11.7912H68.3516C67.8863 13.0483 67.2062 14.1718 66.379 15.0973Z" fill="black"/>
<path d="M55.6803 27.4376C54.7746 27.4376 54.0396 26.6187 54.0396 25.6095C54.0396 24.6001 54.7744 23.7812 55.6803 23.7812H65.2167C66.1223 23.7812 66.8573 24.6001 66.8573 25.6095C66.8573 26.6187 66.1225 27.4376 65.2167 27.4376H55.6803Z" fill="black"/>
<path d="M38.7267 27.4376C37.821 27.4376 37.0859 26.6187 37.0859 25.6095C37.0859 24.6001 37.8208 23.7812 38.7267 23.7812H48.2631C49.1689 23.7812 49.9039 24.6001 49.9039 25.6095C49.9039 26.6187 49.169 27.4376 48.2631 27.4376H38.7267Z" fill="black"/>
<path d="M34.0509 63.0946C34.8815 63.4829 35.2711 64.5533 34.9225 65.4788C34.5739 66.4043 33.6134 66.8385 32.7828 66.45C31.5557 65.8711 30.3936 65.2503 29.31 64.5913L29.2245 64.5416C28.1136 63.8677 27.0404 63.1401 26.0183 62.3667C25.2698 61.8033 25.0714 60.6681 25.5774 59.8301C26.0834 58.996 27.1018 58.7748 27.8538 59.3388C28.8109 60.059 29.7919 60.7289 30.7865 61.3309L30.872 61.3806C31.9385 62.0243 33.0016 62.5996 34.0509 63.0946ZM22.4534 54.3726C23.0927 55.085 23.0927 56.2466 22.4534 56.9584C21.8143 57.6709 20.7718 57.6709 20.1325 56.9584C19.271 55.9986 18.4097 54.9363 17.5656 53.7974C16.7418 52.6813 15.9694 51.5428 15.2788 50.3962C14.5713 49.227 13.898 47.9889 13.2759 46.7129L13.2349 46.6254C12.6469 45.4142 12.1035 44.1536 11.6147 42.8585C11.0986 41.4988 10.6474 40.1315 10.2646 38.7642L10.2407 38.6613C9.86481 37.3205 9.54689 35.9417 9.29038 34.5402C9.1092 33.5537 9.68003 32.5901 10.5653 32.3882C11.4507 32.1862 12.3154 32.8262 12.4966 33.8089C12.7289 35.0925 13.023 36.3608 13.3647 37.6023L13.3888 37.6784C13.7544 38.9886 14.1681 40.2493 14.6226 41.4453C15.0669 42.6146 15.5626 43.7609 16.106 44.8845L16.1573 44.9837C16.711 46.1266 17.3262 47.2536 17.9928 48.3504C18.6628 49.4547 19.3669 50.506 20.088 51.4772C20.7956 52.4417 21.5886 53.4091 22.4534 54.3726Z" fill="url(#paint0_linear_99_311)"/>
<defs>
<linearGradient id="paint0_linear_99_311" x1="3.54009" y1="78.3299" x2="52.6007" y2="67.6638" gradientUnits="userSpaceOnUse">
<stop stop-color="#BBE94E"/>
<stop offset="0.2167" stop-color="#EE7B47"/>
<stop offset="0.4729" stop-color="#E41E33"/>
<stop offset="1" stop-color="#8F2173"/>
</linearGradient>
</defs>
</svg>
