<svg width="100" height="97" viewBox="0 0 100 97" fill="none" xmlns="http://www.w3.org/2000/svg">
<path d="M95.1436 51.6616H14.2249C13.3624 51.6616 12.6624 50.9826 12.6624 50.146C12.6624 49.3093 13.3624 48.6303 14.2249 48.6303H95.1467C96.0092 48.6303 96.7092 49.3093 96.7092 50.146C96.7092 50.9826 96.0092 51.6616 95.1436 51.6616Z" fill="black"/>
<path d="M49.6499 92.8745C49.3437 92.8745 49.0405 92.7896 48.7687 92.6107C34.1843 82.9562 25.478 67.0816 25.478 50.146C25.478 36.4235 31.0437 23.5073 41.1562 13.777C41.7718 13.1799 42.7624 13.192 43.3655 13.7831C43.9749 14.3772 43.9687 15.3381 43.3593 15.9262C33.8437 25.0836 28.603 37.2359 28.603 50.146C28.603 66.0782 36.7999 81.0192 50.5343 90.1069C51.2468 90.5768 51.428 91.5225 50.9437 92.2137C50.6374 92.6441 50.1468 92.8745 49.6499 92.8745Z" fill="black"/>
<path d="M53.6031 92.8745C53.1062 92.8745 52.6156 92.6441 52.3125 92.2137C51.8281 91.5195 52.0094 90.5768 52.7219 90.107C66.4562 81.0193 74.6531 66.0782 74.6531 50.146C74.6531 34.2137 66.4562 19.2727 52.7219 10.185C52.0094 9.71517 51.8281 8.76942 52.3125 8.07829C52.8 7.38717 53.775 7.21742 54.4844 7.6812C69.0687 17.3357 77.775 33.2104 77.775 50.146C77.775 67.0816 69.0687 82.9562 54.4844 92.6108C54.2156 92.7866 53.9094 92.8745 53.6031 92.8745Z" fill="black"/>
<path d="M51.5593 92.4228C50.6968 92.4228 49.9968 91.7438 49.9968 90.9072V9.38473C49.9968 8.54811 50.6968 7.86911 51.5593 7.86911C52.4218 7.86911 53.1218 8.54811 53.1218 9.38473V90.9072C53.1218 91.7468 52.4218 92.4228 51.5593 92.4228Z" fill="black"/>
<path d="M51.5593 94.0991C26.575 94.0991 6.24683 74.3808 6.24683 50.146C6.24683 39.4729 10.2406 29.1727 17.4968 21.1521C18.0656 20.5216 19.05 20.4609 19.7031 21.0126C20.35 21.5643 20.4125 22.5222 19.8468 23.1527C13.0937 30.6187 9.37183 40.2065 9.37183 50.146C9.37183 72.7106 28.2968 91.0678 51.5593 91.0678C74.8218 91.0678 93.7468 72.7106 93.7468 50.146C93.7468 27.5813 74.8218 9.22409 51.5593 9.22409C41.9406 9.22409 32.8843 12.2796 25.375 18.0602C24.7 18.5816 23.7187 18.4755 23.1812 17.8147C22.6437 17.1599 22.7562 16.2081 23.4343 15.6867C31.5 9.47568 41.225 6.19284 51.5593 6.19284C76.5437 6.19284 96.8718 25.9111 96.8718 50.146C96.8718 74.3808 76.5437 94.0991 51.5593 94.0991Z" fill="black"/>
<path d="M51.5593 27.7723C43.0124 27.7723 34.4687 26.8175 26.1749 24.932C25.3343 24.7411 24.8124 23.9287 25.0093 23.1103C25.2062 22.2979 26.0249 21.7917 26.8906 21.9796C44.9937 26.096 64.2343 25.5777 82.1343 20.47C82.978 20.2397 83.8343 20.6913 84.0749 21.4946C84.3187 22.3009 83.8468 23.1406 83.0187 23.377C72.7968 26.2931 62.2124 27.7723 51.5593 27.7723Z" fill="black"/>
<path d="M82.575 79.9098C82.4281 79.9098 82.2812 79.8886 82.1312 79.8462C62.2593 74.1747 40.8593 74.1747 20.9875 79.8462C20.1468 80.0735 19.2875 79.6249 19.0468 78.8216C18.8031 78.0153 19.275 77.1756 20.1031 76.9392C40.5562 71.101 62.5656 71.101 83.0187 76.9392C83.8468 77.1756 84.3187 78.0153 84.075 78.8216C83.875 79.4854 83.25 79.9098 82.575 79.9098Z" fill="black"/>
</svg>
