<svg width="153" height="78" viewBox="0 0 153 78" fill="none" xmlns="http://www.w3.org/2000/svg">
<g filter="url(#filter0_d_73_621)">
<rect x="5.5" y="1.5" width="142" height="67" rx="3.5" stroke="white" stroke-opacity="0.7" stroke-width="3" shape-rendering="crispEdges"/>
</g>
<path d="M32.9619 57.5061V53.1191H35.8872V53.9664H33.8684V54.7495H34.8016C35.2157 54.7495 35.5593 54.884 35.8344 55.153C36.1088 55.422 36.2464 55.7474 36.2464 56.127C36.2464 56.5073 36.1088 56.832 35.8344 57.1018C35.5593 57.3708 35.2157 57.5053 34.8016 57.5053H32.9619V57.5061ZM34.7718 56.6619C34.9332 56.6619 35.0678 56.6086 35.1786 56.5012C35.2886 56.3945 35.3429 56.27 35.3429 56.1278C35.3429 55.9863 35.2879 55.8619 35.1786 55.7544C35.0685 55.6477 34.9332 55.5944 34.7718 55.5944H33.8684V56.6619H34.7718Z" fill="white" fill-opacity="0.7"/>
<path d="M37.6272 57.5061V53.1191H38.5336V54.5601H39.4051C39.8386 54.5601 40.1985 54.7015 40.4841 54.9845C40.7689 55.2666 40.9124 55.6168 40.9124 56.035C40.9124 56.4532 40.7696 56.8026 40.4841 57.0848C40.1985 57.3662 39.8394 57.5069 39.4051 57.5069H37.6272V57.5061ZM39.3746 56.6619C39.5553 56.6619 39.7063 56.6009 39.826 56.4795C39.9472 56.3589 40.0074 56.2097 40.0074 56.0342C40.0074 55.8588 39.9472 55.7103 39.826 55.589C39.7055 55.4676 39.5553 55.4065 39.3746 55.4065H38.5329V56.6612H39.3746V56.6619Z" fill="white" fill-opacity="0.7"/>
<path d="M47.3415 56.9373C46.9243 57.3795 46.4194 57.6014 45.829 57.6014C45.2877 57.6014 44.8237 57.4213 44.437 57.0618C44.0504 56.7016 43.8109 56.2548 43.7187 55.7198H43.1476V57.5063H42.2412V53.1193H43.1476V54.8447H43.7187C43.8109 54.3392 44.0504 53.9102 44.4385 53.5569C44.8259 53.2044 45.2892 53.0273 45.829 53.0273C46.4194 53.0273 46.9236 53.2484 47.3415 53.6914C47.7594 54.1336 47.9683 54.6747 47.9683 55.314C47.9683 55.9533 47.7594 56.4952 47.3415 56.9373ZM46.7005 54.282C46.4566 54.0083 46.1666 53.8723 45.829 53.8723C45.4914 53.8723 45.2014 54.0091 44.9575 54.282C44.7144 54.5549 44.5924 54.8989 44.5924 55.3124C44.5924 55.7268 44.7144 56.07 44.9575 56.3429C45.2007 56.6158 45.4914 56.7526 45.829 56.7526C46.1666 56.7526 46.4566 56.6158 46.7005 56.3429C46.9437 56.07 47.0649 55.726 47.0649 55.3124C47.0656 54.8989 46.9437 54.5556 46.7005 54.282Z" fill="white" fill-opacity="0.7"/>
<path d="M52.2402 53.1191V53.9664H51.0363V57.5061H50.1329V53.9664H48.926V53.1191H52.2402Z" fill="white" fill-opacity="0.7"/>
<path d="M56.3523 57.5061V54.7193L54.2755 57.5061H53.4895V53.1191H54.3959V55.909L56.4735 53.1191H57.2558V57.5061H56.3523Z" fill="white" fill-opacity="0.7"/>
<path d="M60.8697 56.0354H58.7007V55.2832H60.8697V56.0354Z" fill="white" fill-opacity="0.7"/>
<path d="M65.9067 57.5061H65.0032V53.9664H63.2253V57.5061H62.3188V53.1191H65.9059V57.5061H65.9067Z" fill="white" fill-opacity="0.7"/>
<path d="M69.3338 53.1191C69.7673 53.1191 70.1272 53.2606 70.4128 53.5428C70.6976 53.8257 70.8411 54.1751 70.8411 54.5925C70.8411 55.01 70.6983 55.3594 70.4143 55.6415C70.1295 55.9245 69.7696 56.0659 69.3338 56.0659H68.4623V57.5069H67.5559V53.1199H69.3338V53.1191ZM68.4631 53.9672V55.2187H69.3048C69.4855 55.2187 69.6365 55.1584 69.7562 55.0378C69.8774 54.9172 69.9376 54.7696 69.9376 54.5941C69.9376 54.4186 69.8774 54.2702 69.7562 54.1488C69.6357 54.0282 69.4855 53.9672 69.3048 53.9672H68.4631Z" fill="white" fill-opacity="0.7"/>
<path d="M72.6838 53.6976C73.1262 53.2508 73.6691 53.0273 74.3108 53.0273C74.9532 53.0273 75.4961 53.25 75.9385 53.6976C76.3809 54.1444 76.6025 54.6824 76.6025 55.3124C76.6025 55.9424 76.3809 56.4813 75.9385 56.9288C75.4961 57.3772 74.9532 57.6006 74.3108 57.6006C73.6691 57.6006 73.1262 57.3772 72.6838 56.9288C72.2414 56.4813 72.0198 55.9424 72.0198 55.3124C72.0198 54.6824 72.2414 54.1444 72.6838 53.6976ZM73.3501 56.3382C73.6125 56.6158 73.933 56.7541 74.3108 56.7541C74.6885 56.7541 75.009 56.6158 75.2715 56.3382C75.534 56.0607 75.6656 55.7198 75.6656 55.3147C75.6656 54.9097 75.534 54.568 75.2715 54.2897C75.009 54.0114 74.6885 53.8723 74.3108 53.8723C73.933 53.8723 73.6125 54.0114 73.3501 54.2897C73.0876 54.568 72.956 54.9097 72.956 55.3147C72.956 55.7198 73.0876 56.0607 73.3501 56.3382Z" fill="white" fill-opacity="0.7"/>
<path d="M80.7412 53.1182C80.9412 53.1785 81.1055 53.2512 81.2341 53.337C81.3628 53.4228 81.4766 53.5078 81.5747 53.5944C81.6736 53.6795 81.745 53.7529 81.7881 53.8116L81.8558 53.9036L81.2817 54.5004C81.2698 54.4834 81.2542 54.461 81.2334 54.4316C81.2126 54.4022 81.1665 54.3512 81.0951 54.2801C81.0237 54.2082 80.9456 54.1464 80.8609 54.0915C80.7769 54.0374 80.6661 53.9879 80.5285 53.9415C80.3909 53.8951 80.2511 53.8727 80.1076 53.8727C79.7135 53.8727 79.3841 54.0103 79.1194 54.2855C78.8547 54.5607 78.7223 54.9032 78.7223 55.3129C78.7223 55.7226 78.8547 56.0658 79.1194 56.341C79.3841 56.6162 79.7135 56.7538 80.1076 56.7538C80.2608 56.7538 80.4073 56.7322 80.5478 56.6881C80.6884 56.644 80.8044 56.5922 80.8966 56.5319C80.9895 56.4716 81.0706 56.4113 81.1405 56.3495C81.2111 56.2884 81.2624 56.2351 81.2936 56.1903L81.3412 56.1261L81.8855 56.7229C81.8699 56.7476 81.8454 56.7793 81.8134 56.8195C81.7814 56.8589 81.7093 56.9293 81.5985 57.0305C81.4877 57.1318 81.3687 57.2207 81.2423 57.2972C81.1159 57.3738 80.9501 57.4433 80.7456 57.5067C80.5404 57.5701 80.3285 57.6018 80.1084 57.6018C79.4652 57.6018 78.9224 57.3784 78.4799 56.9301C78.0375 56.4825 77.8159 55.9437 77.8159 55.3136C77.8159 54.6836 78.0368 54.1448 78.4799 53.6988C78.9224 53.252 79.4652 53.0286 80.1084 53.0286C80.33 53.0286 80.5411 53.0579 80.7412 53.1182Z" fill="white" fill-opacity="0.7"/>
<path d="M86.2341 53.1191V53.9664H85.0302V57.5061H84.1268V53.9664H82.9199V53.1191H86.2341Z" fill="white" fill-opacity="0.7"/>
<path d="M89.2606 53.1191C89.6941 53.1191 90.054 53.2606 90.3396 53.5428C90.6244 53.8257 90.7679 54.1751 90.7679 54.5925C90.7679 55.01 90.6251 55.3594 90.341 55.6415C90.0562 55.9245 89.6963 56.0659 89.2606 56.0659H88.3891V57.5069H87.4827V53.1199H89.2606V53.1191ZM88.3891 53.9672V55.2187H89.2309C89.4115 55.2187 89.5625 55.1584 89.6822 55.0378C89.8034 54.9172 89.8637 54.7696 89.8637 54.5941C89.8637 54.4186 89.8034 54.2702 89.6822 54.1488C89.5618 54.0282 89.4115 53.9672 89.2309 53.9672H88.3891Z" fill="white" fill-opacity="0.7"/>
<path d="M92.734 56.4725L92.3726 57.5061H91.4075L93.0672 53.1191H94.0294L95.6891 57.5061H94.7239L94.3618 56.4725H92.734ZM93.5497 54.2176L93.0344 55.6586H94.0613L93.5497 54.2176Z" fill="white" fill-opacity="0.7"/>
<path d="M100.522 57.5061H99.6181V55.7196H97.8112V57.5061H96.9048V53.1191H97.8112V54.8747H99.6181V53.1191H100.522V57.5061Z" fill="white" fill-opacity="0.7"/>
<path d="M104.843 53.1182C105.043 53.1785 105.207 53.2512 105.336 53.337C105.464 53.4228 105.578 53.5078 105.676 53.5944C105.775 53.6795 105.846 53.7529 105.89 53.8116L105.957 53.9036L105.383 54.5004C105.371 54.4834 105.355 54.461 105.335 54.4316C105.314 54.4022 105.268 54.3512 105.196 54.2801C105.125 54.2082 105.047 54.1464 104.962 54.0915C104.878 54.0374 104.767 53.9879 104.63 53.9415C104.492 53.8951 104.353 53.8727 104.209 53.8727C103.815 53.8727 103.485 54.0103 103.221 54.2855C102.956 54.5607 102.824 54.9032 102.824 55.3129C102.824 55.7226 102.956 56.0658 103.221 56.341C103.485 56.6162 103.815 56.7538 104.209 56.7538C104.362 56.7538 104.509 56.7322 104.649 56.6881C104.79 56.644 104.906 56.5922 104.998 56.5319C105.091 56.4716 105.172 56.4113 105.243 56.3495C105.313 56.2884 105.364 56.2351 105.395 56.1903L105.443 56.1261L105.987 56.7229C105.971 56.7476 105.947 56.7793 105.915 56.8195C105.883 56.8589 105.811 56.9293 105.7 57.0305C105.589 57.1318 105.47 57.2207 105.344 57.2972C105.217 57.3738 105.051 57.4433 104.847 57.5067C104.642 57.5701 104.43 57.6018 104.21 57.6018C103.567 57.6018 103.024 57.3784 102.581 56.9301C102.139 56.4825 101.917 55.9437 101.917 55.3136C101.917 54.6836 102.138 54.1448 102.581 53.6988C103.024 53.252 103.567 53.0286 104.21 53.0286C104.431 53.0286 104.642 53.0579 104.843 53.1182Z" fill="white" fill-opacity="0.7"/>
<path d="M110.335 53.1191V53.9664H109.131V57.5061H108.227V53.9664H107.021V53.1191H110.335Z" fill="white" fill-opacity="0.7"/>
<path d="M111.583 57.5061V53.1191H113.393C113.776 53.1191 114.092 53.2351 114.342 53.4678C114.593 53.7005 114.718 53.971 114.718 54.2787C114.718 54.3946 114.702 54.5052 114.67 54.6103C114.639 54.7155 114.599 54.8028 114.55 54.8724C114.501 54.9412 114.453 55.0015 114.404 55.0509C114.356 55.1012 114.316 55.136 114.285 55.1569L114.235 55.187C114.254 55.1955 114.279 55.2071 114.31 55.2226C114.34 55.238 114.396 55.2751 114.476 55.3354C114.557 55.3957 114.627 55.4614 114.688 55.5325C114.748 55.6037 114.804 55.7011 114.854 55.8247C114.904 55.9484 114.929 56.0799 114.929 56.2213C114.929 56.5723 114.795 56.8738 114.526 57.1265C114.257 57.3793 113.914 57.5061 113.496 57.5061H111.583ZM112.489 53.9022V54.8445H113.331C113.481 54.8445 113.598 54.8013 113.684 54.7155C113.771 54.6304 113.814 54.516 113.814 54.373C113.814 54.23 113.771 54.1156 113.684 54.0305C113.598 53.9447 113.481 53.9014 113.331 53.9014H112.489V53.9022ZM113.452 56.723C113.616 56.723 113.754 56.6689 113.862 56.5607C113.971 56.4525 114.026 56.3195 114.026 56.1602C114.026 56.001 113.971 55.8673 113.862 55.7575C113.754 55.6485 113.617 55.5944 113.452 55.5944H112.489V56.723H113.452Z" fill="white" fill-opacity="0.7"/>
<path d="M116.768 53.6976C117.211 53.2508 117.754 53.0273 118.395 53.0273C119.038 53.0273 119.581 53.25 120.023 53.6976C120.465 54.1444 120.687 54.6824 120.687 55.3124C120.687 55.9424 120.465 56.4813 120.023 56.9288C119.581 57.3772 119.038 57.6006 118.395 57.6006C117.754 57.6006 117.211 57.3772 116.768 56.9288C116.326 56.4813 116.104 55.9424 116.104 55.3124C116.104 54.6824 116.326 54.1444 116.768 53.6976ZM117.435 56.3382C117.697 56.6158 118.018 56.7541 118.395 56.7541C118.773 56.7541 119.093 56.6158 119.356 56.3382C119.619 56.0607 119.75 55.7198 119.75 55.3147C119.75 54.9097 119.618 54.568 119.356 54.2897C119.093 54.0114 118.773 53.8723 118.395 53.8723C118.018 53.8723 117.697 54.0114 117.435 54.2897C117.171 54.568 117.04 54.9097 117.04 55.3147C117.04 55.7198 117.172 56.0607 117.435 56.3382Z" fill="white" fill-opacity="0.7"/>
<path d="M66.3811 32.8764H65.7312L52.6284 15.2798L51.9212 14.3306H46.4529V44.8637H52.7414H52.7608V26.318H53.3958L67.2213 44.8637H72.6696V14.3306H66.3811V32.8764Z" fill="white" fill-opacity="0.7"/>
<path d="M36.3281 14.3306H30.0203V44.8637H36.3281V14.3306Z" fill="white" fill-opacity="0.7"/>
<path d="M123.958 14.3306H117.65V44.8637H123.958V14.3306Z" fill="white" fill-opacity="0.7"/>
<path d="M104.464 18.7593C101.569 15.8071 97.985 14.3306 93.7108 14.3306H82.7942H82.7935V28.4237V32.2224V32.2278H89.1013V28.4237V20.2288H93.7093C96.2219 20.2288 98.3181 21.1371 99.9979 22.9545C101.677 24.7711 102.517 26.9897 102.517 29.6088C102.517 32.2278 101.657 34.4456 99.9362 36.263C98.539 37.7387 96.9068 38.6153 95.0404 38.8929C94.6098 38.957 94.1667 38.9887 93.7108 38.9887H90.6569H89.1028H82.7949V40.6554H82.7942V44.8661H93.7108C94.5124 44.8661 95.2902 44.8143 96.0427 44.7099C99.3056 44.26 102.113 42.8353 104.465 40.4366C107.359 37.4836 108.807 33.8712 108.807 29.5987C108.806 25.3246 107.359 21.7115 104.464 18.7593Z" fill="white" fill-opacity="0.7"/>
<defs>
<filter id="filter0_d_73_621" x="0" y="0" width="153" height="78" filterUnits="userSpaceOnUse" color-interpolation-filters="sRGB">
<feFlood flood-opacity="0" result="BackgroundImageFix"/>
<feColorMatrix in="SourceAlpha" type="matrix" values="0 0 0 0 0 0 0 0 0 0 0 0 0 0 0 0 0 0 127 0" result="hardAlpha"/>
<feOffset dy="4"/>
<feGaussianBlur stdDeviation="2"/>
<feComposite in2="hardAlpha" operator="out"/>
<feColorMatrix type="matrix" values="0 0 0 0 0 0 0 0 0 0 0 0 0 0 0 0 0 0 0.25 0"/>
<feBlend mode="normal" in2="BackgroundImageFix" result="effect1_dropShadow_73_621"/>
<feBlend mode="normal" in="SourceGraphic" in2="effect1_dropShadow_73_621" result="shape"/>
</filter>
</defs>
</svg>
