<svg width="120" height="104" viewBox="0 0 120 104" fill="none" xmlns="http://www.w3.org/2000/svg">
<path d="M119.062 26C118.5 25.675 117.75 25.5125 117.187 25.8375L78.9375 37.7L52.125 29.25C53.625 26 54.375 23.075 54.375 20.6375C54.375 16.25 52.5 12.35 48.9375 9.26249C45.375 6.17499 40.6875 4.54999 35.8125 4.54999C25.5 4.54999 17.25 11.7 17.25 20.6375C17.25 23.725 18.5625 27.4625 20.8125 32.0125L1.3125 37.7C0.5625 38.025 0 38.675 0 39.325V97.825C0 98.475 0.375 98.9625 0.9375 99.2875C1.3125 99.45 1.6875 99.6125 2.0625 99.6125C2.25 99.6125 2.625 99.6125 2.8125 99.45L41.0625 87.75L78.1875 99.6125C78.5625 99.775 79.125 99.775 79.5 99.6125L118.5 87.5875C119.25 87.2625 119.812 86.6125 119.812 85.9625V27.4625C120 26.8125 119.625 26.325 119.062 26ZM35.8125 7.79999C39.75 7.79999 43.3125 9.09999 45.9375 11.5375C48.75 13.8125 50.25 17.0625 50.25 20.3125C50.25 22.5875 49.3125 25.675 47.4375 29.25C44.0625 35.75 38.4375 42.575 35.8125 45.6625C35.4375 45.3375 35.25 45.0125 34.875 44.525C32.4375 41.6 28.5 36.725 25.6875 31.6875C22.875 26.975 21.5625 23.075 21.5625 20.15C21.375 13.4875 27.9375 7.79999 35.8125 7.79999ZM115.875 84.6625L78.9375 96.0375L41.8125 84.175C41.625 84.175 41.25 84.0125 41.0625 84.0125C40.875 84.0125 40.5 84.0125 40.3125 84.175L4.125 95.3875V40.625L22.875 34.9375C22.875 34.9375 22.875 34.9375 22.875 35.1C23.0625 35.2625 23.0625 35.425 23.25 35.5875C23.4375 35.9125 23.625 36.2375 23.8125 36.5625C24 36.725 24 36.8875 24.1875 37.05C24.375 37.375 24.5625 37.7 24.75 38.025C24.9375 38.1875 24.9375 38.35 25.125 38.5125C25.3125 38.8375 25.5 39.1625 25.6875 39.325C25.875 39.4875 25.875 39.65 26.0625 39.8125C26.25 40.1375 26.4375 40.3 26.625 40.625C26.8125 40.7875 26.8125 40.95 27 41.1125C27.1875 41.4375 27.375 41.6 27.5625 41.925C27.75 42.0875 27.75 42.25 27.9375 42.4125C28.125 42.7375 28.3125 42.9 28.5 43.225C28.6875 43.3875 28.6875 43.55 28.875 43.7125C29.0625 44.0375 29.25 44.2 29.4375 44.525C29.625 44.6875 29.625 44.85 29.8125 44.85C30 45.175 30.1875 45.3375 30.375 45.5C30.375 45.6625 30.5625 45.6625 30.5625 45.825C30.75 46.15 30.9375 46.3125 31.125 46.475L31.3125 46.6375C31.5 46.8 31.6875 47.125 31.875 47.2875L32.0625 47.45C32.25 47.6125 32.4375 47.9375 32.625 48.1C32.8125 48.2625 33 48.425 33.1875 48.5875C33.5625 49.075 33.9375 49.4 33.9375 49.5625C34.3125 50.05 34.875 50.2125 35.625 50.2125C36.1875 50.2125 36.75 49.8875 37.3125 49.5625C37.3125 49.5625 37.5 49.4 37.875 49.075L38.0625 48.9125C38.25 48.75 38.25 48.75 38.4375 48.5875L38.625 48.425C38.8125 48.2625 38.8125 48.1 39 47.9375C39 47.775 39.1875 47.775 39.1875 47.6125C39.375 47.45 39.5625 47.2875 39.5625 47.125C39.75 46.9625 39.75 46.8 39.9375 46.6375C40.125 46.475 40.3125 46.3125 40.5 45.9875C40.6875 45.825 40.6875 45.6625 40.875 45.5C41.0625 45.3375 41.25 45.175 41.4375 44.85C41.625 44.6875 41.8125 44.525 41.8125 44.3625C42 44.2 42.1875 43.875 42.375 43.7125C42.5625 43.55 42.75 43.225 42.9375 43.0625C43.125 42.9 43.3125 42.575 43.5 42.4125C43.6875 42.25 43.875 41.925 44.0625 41.7625C44.25 41.4375 44.4375 41.275 44.625 40.95C44.8125 40.7875 45 40.4625 45.1875 40.3C45.375 39.975 45.5625 39.8125 45.75 39.4875C45.9375 39.1625 46.125 39 46.3125 38.675C46.5 38.35 46.6875 38.1875 46.875 37.8625C47.0625 37.5375 47.25 37.375 47.4375 37.05C47.625 36.725 47.8125 36.5625 48 36.2375C48.1875 35.9125 48.375 35.75 48.5625 35.425C48.75 35.1 48.9375 34.9375 49.125 34.6125C49.3125 34.2875 49.5 34.125 49.6875 33.8C49.875 33.475 50.0625 33.15 50.25 32.9875C50.4375 32.6625 50.625 32.5 50.625 32.175C50.625 32.175 50.625 32.175 50.625 32.0125L78.375 40.7875C78.75 40.95 79.3125 40.95 79.6875 40.7875L115.875 29.575V84.6625Z" fill="black"/>
<path d="M98.4374 68.9C98.8124 69.0625 99.3749 69.0625 99.7499 69.0625C100.875 69.0625 102 68.7375 102.937 68.25C104.25 67.4375 105.187 66.3 105.562 65C105.937 63.7 105.562 62.2375 104.812 61.1C103.875 59.9625 102.562 59.15 101.062 58.825C97.8749 58.175 94.4999 59.9625 93.7499 62.725C93.3749 64.025 93.7499 65.4875 94.4999 66.625C95.6249 67.7625 96.9374 68.575 98.4374 68.9ZM97.8749 63.375C98.0624 62.4 99.1874 61.9125 100.125 62.075C100.687 62.2375 101.062 62.4 101.25 62.8875C101.437 63.2125 101.625 63.7 101.437 64.1875C101.25 64.675 101.062 65 100.5 65.1625C100.125 65.325 99.5624 65.4875 98.9999 65.325C98.4374 65.1625 98.0624 65 97.8749 64.5125C97.8749 64.1875 97.8749 63.8625 97.8749 63.375Z" fill="black"/>
<path d="M20.6251 63.5375L19.3126 64.1875L18.5626 63.05C18.0001 62.2375 16.6876 61.9125 15.7501 62.5625C14.8126 63.05 14.4376 64.1875 15.1876 65L15.9376 66.1375L14.6251 66.7875C13.6876 67.275 13.3126 68.4125 14.0626 69.225C14.2501 69.875 15.0001 70.0375 15.5626 70.0375C15.9376 70.0375 16.3126 69.875 16.6876 69.7125L18.0001 69.0625L18.7501 70.2C19.1251 70.6875 19.8751 71.0125 20.4376 71.0125C20.8126 71.0125 21.1876 70.85 21.5626 70.6875C22.5001 70.2 22.8751 69.0625 22.1251 68.25L21.3751 67.1125L22.6876 66.4625C23.6251 65.975 24.0001 64.8375 23.2501 64.025C22.8751 63.2125 21.5626 63.05 20.6251 63.5375Z" fill="black"/>
<path d="M39.9374 68.4125C37.4999 68.4125 34.3124 68.0875 32.2499 67.6C31.1249 67.4375 29.9999 68.0875 29.8124 69.0625C29.6249 70.0375 30.3749 71.0125 31.4999 71.175C33.5624 71.5 36.9374 71.9875 39.9374 71.9875C41.0624 71.9875 41.9999 71.175 41.9999 70.2C41.9999 69.225 41.0624 68.4125 39.9374 68.4125Z" fill="url(#paint0_linear_99_335)"/>
<path d="M55.3125 62.2375C54 63.8625 52.5 65.1625 50.625 66.1375C50.0625 66.4625 49.3125 66.7875 48.5625 67.1125C47.4375 67.4375 47.0625 68.575 47.4375 69.55C47.8125 70.2 48.5625 70.6875 49.3125 70.6875C49.5 70.6875 49.875 70.6875 50.0625 70.525C51 70.2 51.75 69.875 52.5 69.3875C54.75 68.0875 56.625 66.625 58.3125 64.675C59.0625 63.8625 58.875 62.725 57.9375 62.2375C57.375 61.2625 56.0625 61.425 55.3125 62.2375Z" fill="url(#paint1_linear_99_335)"/>
<path d="M70.3124 50.5375C68.2499 50.5375 67.1249 51.025 65.9999 51.35C63.3749 52.325 61.1249 54.4375 60.5624 55.0875C59.8124 55.9 59.9999 57.0375 60.7499 57.6875C61.1249 58.0125 61.6874 58.175 62.0624 58.175C62.6249 58.175 63.1874 58.0125 63.5624 57.525C64.4999 56.55 65.9999 55.4125 67.4999 54.7625C68.6249 54.4375 68.9999 54.275 70.3124 54.1125C71.4374 54.1125 72.3749 53.3 72.3749 52.325C72.3749 51.35 71.4374 50.5375 70.3124 50.5375Z" fill="url(#paint2_linear_99_335)"/>
<path d="M78 53.3C77.625 54.275 78 55.25 79.125 55.7375C81.1875 56.55 84.1875 57.85 86.4375 59.3125C86.8125 59.475 87.1875 59.6375 87.5625 59.6375C88.3125 59.6375 88.875 59.3125 89.25 58.825C89.8125 58.0125 89.625 56.875 88.6875 56.3875C86.0625 54.925 83.0625 53.4625 80.625 52.65C79.6875 52 78.5625 52.4875 78 53.3Z" fill="url(#paint3_linear_99_335)"/>
<path d="M35.8125 24.7C39.375 24.7 42.1875 22.2625 42.1875 19.175C42.1875 16.0875 39.375 13.65 35.8125 13.65C32.25 13.65 29.4375 16.0875 29.4375 19.175C29.4375 22.2625 32.4375 24.7 35.8125 24.7ZM35.8125 17.225C36.9375 17.225 38.0625 18.0375 38.0625 19.175C38.0625 20.15 37.125 21.125 35.8125 21.125C34.6875 21.125 33.5625 20.3125 33.5625 19.175C33.75 18.2 34.6875 17.225 35.8125 17.225Z" fill="black"/>
<defs>
<linearGradient id="paint0_linear_99_335" x1="27.0761" y1="73.5" x2="41.9278" y2="61.6327" gradientUnits="userSpaceOnUse">
<stop stop-color="#BBE94E"/>
<stop offset="0.2167" stop-color="#EE7B47"/>
<stop offset="0.4729" stop-color="#E41E33"/>
<stop offset="1" stop-color="#8F2173"/>
</linearGradient>
<linearGradient id="paint1_linear_99_335" x1="44.7528" y1="73.8143" x2="64.9531" y2="66.478" gradientUnits="userSpaceOnUse">
<stop stop-color="#BBE94E"/>
<stop offset="0.2167" stop-color="#EE7B47"/>
<stop offset="0.4729" stop-color="#E41E33"/>
<stop offset="1" stop-color="#8F2173"/>
</linearGradient>
<linearGradient id="paint2_linear_99_335" x1="57.3611" y1="60.793" x2="77.4988" y2="51.4406" gradientUnits="userSpaceOnUse">
<stop stop-color="#BBE94E"/>
<stop offset="0.2167" stop-color="#EE7B47"/>
<stop offset="0.4729" stop-color="#E41E33"/>
<stop offset="1" stop-color="#8F2173"/>
</linearGradient>
<linearGradient id="paint3_linear_99_335" x1="75.2647" y1="62.136" x2="94.4598" y2="53.2378" gradientUnits="userSpaceOnUse">
<stop stop-color="#BBE94E"/>
<stop offset="0.2167" stop-color="#EE7B47"/>
<stop offset="0.4729" stop-color="#E41E33"/>
<stop offset="1" stop-color="#8F2173"/>
</linearGradient>
</defs>
</svg>
