<svg width="114" height="123" viewBox="0 0 114 123" fill="none" xmlns="http://www.w3.org/2000/svg">
<path d="M113.817 43.3219C108.968 32.6719 107.903 32.6719 106.875 32.6719H7.125C6.09633 32.6719 5.03203 32.6719 0.183469 43.3219L0 43.7236V44.1714C0 46.2884 1.59778 48.0113 3.5625 48.0113H9.0817C9.0443 48.167 9.01758 48.3284 9.01758 48.4966V83.1634C7.95773 83.8303 7.23633 85.0583 7.23633 86.4786C7.23633 88.6042 8.83144 90.3281 10.7988 90.3281C12.7662 90.3281 14.3613 88.6042 14.3613 86.4786C14.3613 85.0574 13.6399 83.8303 12.5801 83.1634V73.4925L21.9316 61.9651V74.709C20.8718 75.3759 20.1504 76.604 20.1504 78.0243C20.1504 80.1499 21.7455 81.8738 23.7129 81.8738C25.6803 81.8738 27.2754 80.1499 27.2754 78.0243C27.2754 76.6031 26.554 75.3759 25.4941 74.709V48.4966C25.4941 48.3284 25.4674 48.167 25.43 48.0113H89.6842C89.645 48.167 89.62 48.3284 89.62 48.4966V74.71C88.5602 75.3769 87.8388 76.605 87.8388 78.0252C87.8388 80.1508 89.4339 81.8748 91.4013 81.8748C93.3687 81.8748 94.9638 80.1508 94.9638 78.0252C94.9638 76.604 94.2424 75.3769 93.1825 74.71V63.9437L101.643 75.0041V83.1634C100.584 83.8303 99.8622 85.0583 99.8622 86.4786C99.8622 88.6042 101.457 90.3281 103.425 90.3281C105.392 90.3281 106.987 88.6042 106.987 86.4786C106.987 85.0574 106.266 83.8303 105.206 83.1634V48.018L105.205 48.0113H110.438C112.402 48.0113 114 46.2893 114 44.1714V43.7236L113.817 43.3219ZM3.77091 44.1714C5.22441 41.0455 6.95934 37.6611 7.7618 36.5214H15.7284L12.6023 44.1705L3.77091 44.1714ZM12.5801 70.5722V48.4966C12.5801 48.3284 12.5534 48.167 12.516 48.0113H21.9967C21.9592 48.167 21.9325 48.3284 21.9325 48.4966V59.0467L12.5801 70.5722ZM14.5493 44.1705L17.6753 36.5214H97.2286L100.528 44.1637L14.5493 44.1705ZM93.1816 60.9225V48.4966C93.1816 48.3284 93.1558 48.167 93.1175 48.0113H101.643L101.643 48.018V71.9838L93.1816 60.9225ZM102.494 44.1628L99.1943 36.5204H106.238C107.04 37.6591 108.772 41.0378 110.226 44.1618L102.494 44.1628Z" fill="#221F1F"/>
</svg>
