<svg width="99" height="97" viewBox="0 0 99 97" fill="none" xmlns="http://www.w3.org/2000/svg">
<rect x="47" width="6" height="17" rx="3" fill="black"/>
<rect x="81.9272" y="10" width="6" height="17" rx="3" transform="rotate(40 81.9272 10)" fill="black"/>
<rect x="74" y="72.2426" width="6" height="17" rx="3" transform="rotate(-45 74 72.2426)" fill="black"/>
<path d="M17.1213 17.3639C15.9497 16.1924 15.9497 14.2929 17.1213 13.1213C18.2929 11.9497 20.1924 11.9497 21.364 13.1213L29.1421 20.8995C30.3137 22.071 30.3137 23.9705 29.1421 25.1421C27.9706 26.3137 26.0711 26.3137 24.8995 25.1421L17.1213 17.3639Z" fill="black"/>
<path d="M23.33 73.4414C24.395 72.1722 26.2873 72.0066 27.5565 73.0716C28.8257 74.1366 28.9913 76.0289 27.9263 77.2981L20.8556 85.7246C19.7906 86.9938 17.8983 87.1594 16.6291 86.0944C15.3599 85.0294 15.1943 83.1371 16.2593 81.8679L23.33 73.4414Z" fill="black"/>
<rect x="99" y="43" width="6" height="17" rx="3" transform="rotate(90 99 43)" fill="black"/>
<path d="M14.5 43C16.1569 43 17.5 44.3431 17.5 46C17.5 47.6569 16.1569 49 14.5 49H3.5C1.84314 49 0.499999 47.6569 0.499999 46C0.499999 44.3431 1.84315 43 3.5 43H14.5Z" fill="black"/>
<circle cx="50.5" cy="48.5" r="21.5" stroke="black" stroke-width="4"/>
<path d="M47 83C47 81.3431 48.3431 80 50 80C51.6569 80 53 81.3431 53 83V94C53 95.6569 51.6569 97 50 97C48.3431 97 47 95.6569 47 94V83Z" fill="black"/>
</svg>
