<svg width="34" height="34" viewBox="0 0 34 34" fill="none" xmlns="http://www.w3.org/2000/svg">
<rect x="0.8" y="0.8" width="32.4" height="32.4" rx="3.2" stroke="white" stroke-width="1.6"/>
<path d="M25.6879 7.00147C25.4443 7.01215 25.2073 7.07993 24.9935 7.16553C24.7819 7.25056 23.5638 7.77048 21.765 8.53956C19.9662 9.30864 17.6279 10.3101 15.3099 11.3032C10.6741 13.2894 6.11852 15.2437 6.11852 15.2437L6.15173 15.231C6.15173 15.231 5.87678 15.3229 5.59802 15.5171C5.45864 15.6142 5.30868 15.7396 5.18591 15.9224C5.06313 16.1052 4.97337 16.3642 5.0072 16.6382C5.12601 17.6006 6.12341 17.8735 6.12341 17.8735L6.12731 17.8755L10.5785 19.3989C10.692 19.7775 11.9285 23.9048 12.2006 24.7788C12.3508 25.262 12.4914 25.5408 12.6381 25.731C12.7115 25.8261 12.7884 25.8998 12.8734 25.9536C12.9072 25.975 12.9427 25.9911 12.9779 26.0054C12.9786 26.0057 12.9791 26.005 12.9799 26.0054C12.9842 26.0073 12.9882 26.0075 12.9925 26.0093L12.9808 26.0064C12.989 26.0097 12.9971 26.0152 13.0052 26.0181C13.0211 26.0236 13.0308 26.0234 13.0511 26.0278C13.5609 26.2058 13.9828 25.8755 13.9828 25.8755L14.0004 25.8618L16.7347 23.3257L21.1722 26.7857L21.2279 26.811C22.0046 27.1559 22.7071 26.9635 23.0961 26.647C23.4851 26.3304 23.6381 25.9224 23.6381 25.9224L23.6547 25.8794L26.9154 8.88428C26.9988 8.50407 27.0107 8.17541 26.932 7.87842C26.8533 7.58144 26.6621 7.32327 26.4222 7.18018C26.1823 7.03709 25.9314 6.99079 25.6879 7.00147ZM25.7142 8.01807C25.8131 8.01349 25.8864 8.0248 25.9095 8.03858C25.9326 8.05236 25.943 8.05055 25.9652 8.13428C25.9874 8.21802 25.9994 8.39439 25.9388 8.67042L25.9369 8.67628L22.6947 25.5728C22.687 25.5898 22.6195 25.7461 22.4652 25.8716C22.3078 25.9996 22.1328 26.0996 21.6683 25.9048L16.8158 22.1206L16.6791 22.0132L16.6761 22.0161L15.225 20.9273L23.3802 11.3325C23.4429 11.259 23.4829 11.1689 23.4955 11.0731C23.508 10.9773 23.4925 10.8799 23.4509 10.7927C23.4093 10.7055 23.3433 10.6323 23.2609 10.5818C23.1785 10.5313 23.0833 10.5058 22.9867 10.5083C22.8923 10.5108 22.8006 10.5399 22.722 10.5923L10.9213 18.4595L6.46325 16.9331C6.46325 16.9331 6.02057 16.6868 5.99938 16.5151C5.99821 16.5056 5.99298 16.5142 6.01598 16.48C6.03899 16.4457 6.09681 16.3879 6.1693 16.3374C6.31429 16.2364 6.47985 16.1753 6.47985 16.1753L6.49645 16.1694L6.51305 16.1626C6.51305 16.1626 11.0688 14.2082 15.7045 12.2222C18.0223 11.2291 20.3602 10.2284 22.1586 9.45948C23.9565 8.69079 25.2556 8.13749 25.3656 8.09327C25.4908 8.04312 25.6153 8.02265 25.7142 8.01807ZM20.306 13.4048L14.1215 20.6812L14.1185 20.6841C14.1089 20.6957 14.0997 20.7078 14.0912 20.7202C14.0814 20.7338 14.0722 20.7478 14.0638 20.7622C14.0291 20.8212 14.0068 20.8867 13.9984 20.9546C13.9984 20.9559 13.9984 20.9572 13.9984 20.9585L13.1927 24.5815C13.1793 24.5424 13.17 24.5281 13.1556 24.4819V24.481C12.8997 23.6587 11.7331 19.7664 11.5716 19.228L20.306 13.4048ZM14.8197 21.8735L15.931 22.7075L14.2982 24.2212L14.8197 21.8735Z" fill="white"/>
</svg>
