<svg width="34" height="34" viewBox="0 0 34 34" fill="none" xmlns="http://www.w3.org/2000/svg">
<path d="M5.9659 10C4.69175 10 3.72171 11.252 4.07243 12.4839C4.98698 15.6937 6.34326 18.8369 8.3677 21.3098C10.3899 23.7804 13.1269 25.5717 16.6275 25.9269C17.7929 26.0445 18.7962 25.0945 18.7962 23.9446V21.6449C18.7962 21.5007 18.8961 21.3986 19.0071 21.3963C19.0271 21.3941 19.0448 21.3941 19.0559 21.3941C19.4577 21.3941 20.2835 21.898 21.0093 22.6816C21.733 23.4629 22.3745 24.433 22.683 24.9702C23.0338 25.5762 23.6842 25.9424 24.3767 25.9424H27.147C28.5255 25.9424 29.4489 24.3864 28.7741 23.1788C27.7131 21.2831 25.5998 19.4096 24.541 18.4751C26.4789 16.3463 27.7641 14.0289 28.3324 12.4928C28.7608 11.3296 27.8773 10.0244 26.6276 10.0244H24.6498C23.7907 10.0244 22.9916 10.4417 22.6631 11.1121C21.1248 14.2642 19.7529 15.4229 18.7873 16.2576V11.98C18.7873 10.9123 17.9016 10.0311 16.8384 10.0311L13.3755 10.0244C12.2745 10.0222 11.5908 11.3851 12.2501 12.2686L12.9182 13.1632L12.9205 13.1654C13.0359 13.3163 13.0958 13.4961 13.0958 13.6848L13.1091 17.252C11.7329 15.8003 10.2368 12.7237 9.78392 11.3518C9.52199 10.5483 8.76282 10.0089 7.92597 10.0067H7.92375L5.9659 10ZM5.9659 11.7048L7.92153 11.7092C8.0414 11.7114 8.13019 11.7758 8.1657 11.8824C8.72509 13.5872 10.199 16.8347 12.0659 18.6527C12.5498 19.1255 13.2623 19.221 13.8128 18.999C14.3655 18.7748 14.8139 18.1932 14.8139 17.5117V17.5095L14.8006 13.6826C14.8006 13.1254 14.6186 12.5838 14.2834 12.1399V12.1376L13.9771 11.7292L16.8362 11.7336C16.9849 11.7359 17.0825 11.8313 17.0825 11.9778V16.2997C17.0825 17.6826 18.8251 18.4773 19.8728 17.5739H19.875C20.834 16.7437 22.5343 15.2631 24.1947 11.8602C24.2324 11.7803 24.1992 11.727 24.652 11.727H26.6276C26.743 11.727 26.7763 11.7825 26.7341 11.9001C26.2502 13.2054 25.016 15.4828 23.1869 17.454C22.6231 18.0622 22.6453 19.0656 23.2846 19.6294C24.2835 20.5129 26.4633 22.5417 27.2846 24.009C27.3601 24.1444 27.3024 24.2376 27.147 24.2376H24.3767C24.2813 24.2376 24.2036 24.191 24.1614 24.1178C23.7929 23.4763 23.1159 22.4463 22.2591 21.5206C21.4022 20.5972 20.3834 19.6893 19.0559 19.6893C19.0182 19.6893 18.9871 19.6893 18.9627 19.6893H18.9583C17.9016 19.7204 17.0914 20.6172 17.0914 21.6427V23.9424C17.0914 24.12 16.956 24.2465 16.7984 24.231C13.7751 23.9247 11.4931 22.4374 9.68403 20.2287C7.87713 18.0201 6.58522 15.0788 5.71063 12.0156C5.66401 11.8446 5.76834 11.7048 5.96368 11.7048H5.9659Z" fill="white"/>
<rect x="0.8" y="0.8" width="32.4" height="32.4" rx="3.2" stroke="white" stroke-width="1.6"/>
</svg>
